<svg width="600" height="760" viewBox="0 0 600 760" fill="none" xmlns="http://www.w3.org/2000/svg">
  <rect width="600" height="760" rx="28" fill="#F8FAFC"/>
  <rect x="34" y="34" width="532" height="692" rx="20" fill="white" stroke="#E2E8F0"/>
  <rect x="80" y="80" width="440" height="24" rx="12" fill="#047857"/>
  <rect x="80" y="124" width="248" height="12" rx="6" fill="#0F172A"/>
  <rect x="80" y="146" width="196" height="10" rx="5" fill="#94A3B8"/>
  <rect x="80" y="188" width="440" height="88" rx="12" fill="#F8FAFC" stroke="#E2E8F0"/>
  <rect x="102" y="212" width="142" height="10" rx="5" fill="#047857"/>
  <rect x="102" y="234" width="274" height="8" rx="4" fill="#CBD5E1"/>
  <rect x="80" y="302" width="440" height="92" rx="12" fill="#F8FAFC" stroke="#E2E8F0"/>
  <rect x="102" y="326" width="126" height="10" rx="5" fill="#047857"/>
  <rect x="102" y="348" width="214" height="8" rx="4" fill="#CBD5E1"/>
  <rect x="80" y="418" width="440" height="92" rx="12" fill="#F8FAFC" stroke="#E2E8F0"/>
  <rect x="102" y="442" width="118" height="10" rx="5" fill="#047857"/>
  <rect x="102" y="464" width="230" height="8" rx="4" fill="#CBD5E1"/>
</svg>
